# xmcd
# Track frame offsets:
# 150
# 16521
# 34392
# 50132
# 72161
# 89409
# 108832
# 123770
# 137466
# 155737
# 171753
#
# Disc length: 2568 seconds
# Revision: 0
# Processed by: cddbd v1.5.2PL0 Copyright (c) Steve Scherf et al.
# Submitted via: VisiTrax 2.10.3.257 - For more info visit www.synapsa.com
#
DISCID=8a0a060b
DTITLE=Randy Travis - Around The Bend
DYEAR=2008
DGENRE=Country
TTITLE0=Around The Bend
TTITLE1=You Didn't have A Good Time
TTITLE2=Every Head Bowed
TTITLE3=Love Is A Gamble
TTITLE4=Faith In You
TTITLE5=Don't Think Twice, It's All Right
TTITLE6=Dig Two graves
TTITLE7=Turn It Around
TTITLE8=From Your knees
TTITLE9=Everything That I Own (Has Got A Dent)
TTITLE10='Til I'm Dead And Gone
EXTD=
EXTT0=
EXTT1=
EXTT2=
EXTT3=
EXTT4=
EXTT5=
EXTT6=
EXTT7=
EXTT8=
EXTT9=
EXTT10=
PLAYORDER=
